# xmcd
#
# Track frame offsets:
#	150
#	22106
#	46387
#	70941
#	89492
#
# Disc length: 1390 seconds
#
# Revision: 1
# Processed by: cddbd v1.5.2PL0 Copyright (c) Steve Scherf et al.
# Submitted via: audiograbber 1.83.01
#
DISCID=40056c05
DTITLE=Bluedog - Just Living The Blues
DYEAR=2011
DGENRE=Blues
TTITLE0=Living the Blues
TTITLE1=Missing You
TTITLE2=Cross My Heart
TTITLE3=Get Up and Get Out
TTITLE4=Want to Hurt You
EXTD=
EXTT0=
EXTT1=
EXTT2=
EXTT3=
EXTT4=
PLAYORDER=
